# xmcd
#
# Track frame offsets: 
#        150
#        18960
#        38612
#        56212
#        72447
#        98342
#        114592
#        141122
#        159982
#        183120
#        201675
#        220515
#
# Disc length: 3342 seconds
#
# Revision: 1
# Processed by: cddbd v1.5.2PL0 Copyright (c) Steve Scherf et al.
# Submitted via: ExactAudioCopy v0.99pb5
#
DISCID=a00d0c0c
DTITLE=Ricardo Leyva y Sur Caribe - Caminando
DYEAR=2004
DGENRE=Salsa
TTITLE0=Aprendi Caminando
TTITLE1=Por y para Maria
TTITLE2=La Pelota de la suerte
TTITLE3=Oh! La barberia con Pedrito Calvo y Roberton
TTITLE4=De los dientes para afuera
TTITLE5=Tu fenomeno
TTITLE6=Tu negro esta sufriendo
TTITLE7=Ponte que te toca ahora
TTITLE8=Tu caramelo soy yo con Candyman y Jenny Valdes
TTITLE9=S.O.S. lluvia
TTITLE10=Y si miro al mar, mujer
TTITLE11=Como un sol
EXTD=YEAR: 2004
EXTT0=
EXTT1=
EXTT2=
EXTT3=
EXTT4=
EXTT5=
EXTT6=
EXTT7=
EXTT8=
EXTT9=
EXTT10=
EXTT11=
PLAYORDER=
